{"title":"Naruto Shippuden 87 DVBrip xvid audio castellano","uid":6083939,"size":188686336,"categoryP":"video","categoryS":"tv_shows","magnet":"?xt=urn:btih:3662ceeb61f89541cd4d16e62d1b6b79e5b38fd4&amp;dn=Naruto+Shippuden+87+DVBrip+xvid+audio+castellano&amp;tr=udp%3A%2F%2Ftracker.openbittorrent.com%3A80&amp;tr=udp%3A%2F%2Fopen.demonii.com%3A1337&amp;tr=udp%3A%2F%2Ftracker.coppersurfer.tk%3A6969&amp;tr=udp%3A%2F%2Fexodus.desync.com%3A6969","seeders":0,"leechers":0,"uploader":null,"files":1,"time":1294234462,"description":"MEDIAINFO:\n\nGeneral\nComplete name : D:\\tem\\narut\\subida\\Naruto Shippuden 87 DVBrip xvid audio castellano.avi\nFormat : AVI\nFormat/Info : Audio Video Interleave\nFile size : 180 MiB\nDuration : 19mn 32s\nOverall bit rate : 1 288 Kbps\nWriting application : VirtualDubMod 1.5.10.4 || AKO+ || (build 2550/release)\nWriting library : VirtualDubMod build 2550/release\n\nVideo\nID : 0\nFormat : MPEG-4 Visual\nFormat profile : Advanced Simple@L5\nFormat settings, BVOP : Yes\nFormat settings, QPel : No\nFormat settings, GMC : No warppoints\nFormat settings, Matrix : Default (MPEG)\nCodec ID : XVID\nCodec ID/Hint : XviD\nDuration : 19mn 32s\nBit rate : 1 150 Kbps\nWidth : 640 pixels\nHeight : 356 pixels\nDisplay aspect ratio : 16:9\nFrame rate : 25.000 fps\nColor space : YUV\nChroma subsampling : 4:2:0\nBit depth : 8 bits\nScan type : Progressive\nCompression mode : Lossy\nBits/(Pixel*Frame) : 0.202\nStream size : 161 MiB (89%)\nWriting library : XviD 58\n\nAudio\nID : 1\nFormat : MPEG Audio\nFormat version : Version 1\nFormat profile : Layer 2\nCodec ID : 50\nDuration : 19mn 32s\nBit rate mode : Constant\nBit rate : 128 Kbps\nChannel(s) : 2 channels\nSampling rate : 48.0 KHz\nCompression mode : Lossy\nStream size : 17.9 MiB (10%)\nAlignment : Aligned on interleaves\nInterleave, duration : 40 ms (1.00 video frame)\nInterleave, preload duration : 504 ms\n\nCAPTURAS:\n","torrent":{"xt":"urn:btih:3662ceeb61f89541cd4d16e62d1b6b79e5b38fd4","amp;dn":"Naruto+Shippuden+87+DVBrip+xvid+audio+castellano","amp;tr":["udp%3A%2F%2Ftracker.openbittorrent.com%3A80","udp%3A%2F%2Fopen.demonii.com%3A1337","udp%3A%2F%2Ftracker.coppersurfer.tk%3A6969","udp%3A%2F%2Fexodus.desync.com%3A6969"],"infoHash":"3662ceeb61f89541cd4d16e62d1b6b79e5b38fd4","infoHashBuffer":{"type":"Buffer","data":[54,98,206,235,97,248,149,65,205,77,22,230,45,27,107,121,229,179,143,212]},"announce":[],"urlList":[]}}